<?xml version="1.0" encoding="UTF-8" standalone="no"?>
<svg xmlns="http://www.w3.org/2000/svg">
    <path
       d="M 83.720703 16.009766 A 25 20 0 0 1 60 30 A 25 20 0 0 1 36.308594 16.087891 A 50 50 0 0 0 16.130859 36.21875 A 20 25 0 0 1 30 60 A 20 25 0 0 1 16.087891 83.691406 A 50 50 0 0 0 36.308594 103.91211 A 25 20 0 0 1 60 90 A 25 20 0 0 1 83.78125 103.86914 A 50 50 0 0 0 103.91211 83.691406 A 20 25 0 0 1 90 60 A 20 25 0 0 1 103.99023 36.279297 A 50 50 0 0 0 83.720703 16.009766 z M 60 40 A 20 20 0 0 1 80 60 A 20 20 0 0 1 60 80 A 20 20 0 0 1 40 60 A 20 20 0 0 1 60 40 z " />
    <path
       d="m 104.71686,46.571047 a 23.355869,18.684695 45 0 1 -24.911988,-6.427984 23.355869,18.684695 45 0 1 -6.460235,-24.84102 46.711738,46.711738 0 0 0 -26.628011,-0.03097 18.684695,23.355869 45 0 1 -6.547976,24.871989 18.684695,23.355869 45 0 1 -24.841022,6.460239 46.711738,46.711738 0 0 0 4e-6,26.715744 23.355869,18.684695 45 0 1 24.841016,6.460238 23.355869,18.684695 45 0 1 6.547977,24.871987 46.711738,46.711738 0 0 0 26.628004,-0.0309 18.684695,23.355869 45 0 1 6.46024,-24.841023 18.684695,23.355869 45 0 1 24.911981,-6.427987 46.711738,46.711738 0 0 0 1e-5,-26.780249 z M 73.198835,46.7491 a 18.684695,18.684695 0 0 1 -4e-6,26.424146 18.684695,18.684695 0 0 1 -26.424146,4e-6 18.684695,18.684695 0 0 1 0,-26.42415 18.684695,18.684695 0 0 1 26.42415,0 z" />
</svg>
